<svg width="126" height="48" viewBox="0 0 126 48" fill="none" xmlns="http://www.w3.org/2000/svg">
<path d="M0 0.0699463H7.5V19.4999H15.54V0.0699463H23.04V47.7699H15.54V26.3099H7.5V47.7799H0V0.0699463Z" fill="black"/>
<path d="M25.78 0.219971H27.97L29.64 10.51H28.02L27.73 8.46997V8.49997H25.9L25.61 10.51H24.11L25.78 0.219971ZM27.55 7.09997L26.83 2.01997H26.8L26.09 7.09997H27.55Z" fill="black"/>
<path d="M30.72 0.219971H32.34V9.03997H35V10.51H30.72V0.219971Z" fill="black"/>
<path d="M34.97 0.219971H36.6L37.66 8.19997H37.69L38.75 0.219971H40.23L38.67 10.51H36.52L34.97 0.219971Z" fill="black"/>
<path d="M41.3 0.219971H61.68V7.00997H48.77V19.58H59.03V26.37H48.77V40.98H61.68V47.77H41.3V0.219971Z" fill="black"/>
<path d="M25.78 12.6399H27.97L29.64 22.9299H28.02L27.73 20.8899V20.9199H25.9L25.61 22.9299H24.11L25.78 12.6399ZM27.55 19.5199L26.83 14.4399H26.8L26.09 19.5199H27.55Z" fill="black"/>
<path d="M30.72 12.6399H32.34V21.4599H35V22.9299H30.72V12.6399Z" fill="black"/>
<path d="M34.97 12.6399H36.6L37.66 20.6199H37.69L38.75 12.6399H40.23L38.67 22.9299H36.52L34.97 12.6399Z" fill="black"/>
<path d="M25.78 25.0699H27.97L29.64 35.3599H28.02L27.73 33.3199V33.3499H25.9L25.61 35.3599H24.11L25.78 25.0699ZM27.55 31.9399L26.83 26.8599H26.8L26.09 31.9399H27.55Z" fill="black"/>
<path d="M30.72 25.0699H32.34V33.8899H35V35.3599H30.72V25.0699Z" fill="black"/>
<path d="M34.97 25.0699H36.6L37.66 33.0499H37.69L38.75 25.0699H40.23L38.67 35.3599H36.52L34.97 25.0699Z" fill="black"/>
<path d="M25.78 37.49H27.97L29.64 47.78H28.02L27.73 45.74V45.77H25.9L25.61 47.78H24.11L25.78 37.49ZM27.55 44.37L26.83 39.29H26.8L26.09 44.37H27.55Z" fill="black"/>
<path d="M30.72 37.49H32.34V46.31H35V47.78H30.72V37.49Z" fill="black"/>
<path d="M34.97 37.49H36.6L37.66 45.47H37.69L38.75 37.49H40.23L38.67 47.78H36.52L34.97 37.49Z" fill="black"/>
<path d="M70 41.17L83.9 6.96002H70.68V0.150024H91.94V6.83002L78.04 41.04H91.94V47.85H70V41.17Z" fill="black"/>
<path d="M93.66 9.9C93.24 9.45 93.03 8.81 93.03 7.99V2.59C93.03 1.77 93.24 1.13 93.66 0.68C94.08 0.22 94.69 0 95.49 0C96.28 0 96.89 0.22 97.31 0.67C97.73 1.13 97.94 1.76 97.94 2.59V8C97.94 8.82 97.73 9.46 97.31 9.91C96.89 10.36 96.28 10.58 95.49 10.58C94.69 10.58 94.08 10.35 93.66 9.9ZM96.32 8.09V2.48C96.32 1.81 96.04 1.47 95.48 1.47C94.92 1.47 94.64 1.81 94.64 2.48V8.09C94.64 8.77 94.92 9.1 95.48 9.1C96.04 9.11 96.32 8.77 96.32 8.09Z" fill="black"/>
<path d="M99.84 9.9C99.42 9.45 99.21 8.81 99.21 7.99V2.59C99.21 1.77 99.42 1.13 99.84 0.68C100.26 0.22 100.86 0 101.66 0C102.45 0 103.06 0.22 103.48 0.67C103.9 1.12 104.11 1.76 104.11 2.58V7.99C104.11 8.81 103.9 9.45 103.48 9.9C103.06 10.35 102.45 10.57 101.66 10.57C100.86 10.58 100.26 10.35 99.84 9.9ZM102.5 8.09V2.48C102.5 1.81 102.22 1.47 101.66 1.47C101.1 1.47 100.82 1.81 100.82 2.48V8.09C100.82 8.77 101.1 9.1 101.66 9.1C102.22 9.1 102.5 8.77 102.5 8.09Z" fill="black"/>
<path d="M105.49 0H112.98V41.02H125.32V47.85H105.49V0Z" fill="black"/>
<path d="M93.66 22.3301C93.24 21.8801 93.03 21.2401 93.03 20.4201V15.0101C93.03 14.1901 93.24 13.5501 93.66 13.1001C94.08 12.6501 94.69 12.4301 95.48 12.4301C96.27 12.4301 96.88 12.6501 97.3 13.1001C97.72 13.5501 97.93 14.1901 97.93 15.0101V20.4201C97.93 21.2401 97.72 21.8801 97.3 22.3301C96.89 22.7801 96.28 23.0001 95.49 23.0001C94.69 23.0001 94.08 22.7801 93.66 22.3301ZM96.32 20.5201V14.9101C96.32 14.2401 96.04 13.9001 95.48 13.9001C94.92 13.9001 94.64 14.2401 94.64 14.9101V20.5201C94.64 21.2001 94.92 21.5301 95.48 21.5301C96.04 21.5301 96.32 21.2001 96.32 20.5201Z" fill="black"/>
<path d="M99.84 22.3301C99.42 21.8801 99.21 21.2401 99.21 20.4201V15.0101C99.21 14.1901 99.42 13.5501 99.84 13.1001C100.26 12.6501 100.87 12.4301 101.66 12.4301C102.45 12.4301 103.06 12.6501 103.48 13.1001C103.9 13.5501 104.11 14.1901 104.11 15.0101V20.4201C104.11 21.2401 103.9 21.8801 103.48 22.3301C103.06 22.7801 102.45 23.0001 101.66 23.0001C100.86 23.0001 100.26 22.7801 99.84 22.3301ZM102.5 20.5201V14.9101C102.5 14.2401 102.22 13.9001 101.66 13.9001C101.1 13.9001 100.82 14.2401 100.82 14.9101V20.5201C100.82 21.2001 101.1 21.5301 101.66 21.5301C102.22 21.5301 102.5 21.2001 102.5 20.5201Z" fill="black"/>
<path d="M93.66 34.75C93.24 34.3 93.03 33.66 93.03 32.84V27.43C93.03 26.61 93.24 25.97 93.66 25.52C94.08 25.07 94.69 24.85 95.48 24.85C96.27 24.85 96.88 25.07 97.3 25.52C97.72 25.97 97.93 26.61 97.93 27.43V32.84C97.93 33.66 97.72 34.3 97.3 34.75C96.88 35.2 96.27 35.42 95.48 35.42C94.69 35.43 94.08 35.2 93.66 34.75ZM96.32 32.94V27.33C96.32 26.66 96.04 26.32 95.48 26.32C94.92 26.32 94.64 26.66 94.64 27.33V32.94C94.64 33.62 94.92 33.95 95.48 33.95C96.04 33.96 96.32 33.62 96.32 32.94Z" fill="black"/>
<path d="M99.84 34.75C99.42 34.3 99.21 33.66 99.21 32.84V27.43C99.21 26.61 99.42 25.97 99.84 25.52C100.26 25.07 100.87 24.85 101.66 24.85C102.45 24.85 103.06 25.07 103.48 25.52C103.9 25.97 104.11 26.61 104.11 27.43V32.84C104.11 33.66 103.9 34.3 103.48 34.75C103.06 35.2 102.45 35.42 101.66 35.42C100.86 35.43 100.26 35.2 99.84 34.75ZM102.5 32.94V27.33C102.5 26.66 102.22 26.32 101.66 26.32C101.1 26.32 100.82 26.66 100.82 27.33V32.94C100.82 33.62 101.1 33.95 101.66 33.95C102.22 33.95 102.5 33.62 102.5 32.94Z" fill="black"/>
<path d="M93.66 47.18C93.24 46.73 93.03 46.09 93.03 45.27V39.86C93.03 39.04 93.24 38.4 93.66 37.95C94.08 37.5 94.69 37.28 95.48 37.28C96.27 37.28 96.88 37.5 97.3 37.95C97.73 38.4 97.94 39.04 97.94 39.86V45.27C97.94 46.09 97.73 46.73 97.31 47.18C96.89 47.63 96.28 47.85 95.49 47.85C94.69 47.85 94.08 47.63 93.66 47.18ZM96.32 45.37V39.76C96.32 39.09 96.04 38.75 95.48 38.75C94.92 38.75 94.64 39.09 94.64 39.76V45.37C94.64 46.05 94.92 46.38 95.48 46.38C96.04 46.38 96.32 46.04 96.32 45.37Z" fill="black"/>
<path d="M99.84 47.18C99.42 46.73 99.21 46.09 99.21 45.27V39.86C99.21 39.04 99.42 38.4 99.84 37.95C100.26 37.5 100.87 37.28 101.66 37.28C102.45 37.28 103.06 37.5 103.48 37.95C103.9 38.4 104.11 39.04 104.11 39.86V45.27C104.11 46.09 103.9 46.73 103.48 47.18C103.06 47.63 102.45 47.85 101.66 47.85C100.86 47.85 100.26 47.63 99.84 47.18ZM102.5 45.37V39.76C102.5 39.09 102.22 38.75 101.66 38.75C101.1 38.75 100.82 39.09 100.82 39.76V45.37C100.82 46.05 101.1 46.38 101.66 46.38C102.22 46.38 102.5 46.04 102.5 45.37Z" fill="black"/>
</svg>
